# xmcd
#
# Track frame offsets: 
#        150
#        10117
#        22835
#        33715
#        47950
#        61530
#        73155
#        86585
#        99525
#        110827
#        122627
#        139630
#        149170
#        161960
#        176375
#        187090
#        200227
#        218355
#        232040
#        238905
#        257195
#        266490
#        276980
#        290992
#        303435
#        314825
#        328032
#        344035
#
# Disc length: 4709 seconds
#
# Revision: 2
# Processed by: cddbd v1.5.2PL0 Copyright (c) Steve Scherf et al.
# Submitted via: ExactAudioCopy v0.95b4
#
DISCID=c812631c
DTITLE=Sons Of The Pioneers - Songs Of The Prairie, The Standard Trans
DTITLE=criptions Disc 2
DYEAR=1900
DGENRE=
TTITLE0=Toopie-Ty-Yi-Yo 1934
TTITLE1=St. Louis Blues 1934
TTITLE2=Kilocycle Stomp 1934
TTITLE3=Kelley Waltz 1934
TTITLE4=Mandy Lee 1934
TTITLE5=Kingdom Coming 1934
TTITLE6=Dear Evelina 1934
TTITLE7=Ridin' Home 1934
TTITLE8=Sage Brush Sea 1934
TTITLE9=Get On The Golden Train 1934
TTITLE10=Rosalee 1934
TTITLE11=Nancy Till 1934
TTITLE12=Spanish Cavalier 1934
TTITLE13=Hills Of Old Montana 1934
TTITLE14=Lone Star Trail 1934
TTITLE15=Little Red Barn 1934
TTITLE16=Juanita 1934
TTITLE17=Dese Bones Gwine To Rise Again 1934
TTITLE18=Fair To Middlin' 1934
TTITLE19=Carry Me Back To The Mountain 1934
TTITLE20=Jordan Am A Hard Road To Travel 1934
TTITLE21=When Roundup Time Is Over 1934
TTITLE22=Prairie Lullaby 1934
TTITLE23=Wait Till The Sun Shines Nellie 1934
TTITLE24=Little Brown Jug 1934
TTITLE25=Home On The Range 1934
TTITLE26=Side Walk Waltz 1934
TTITLE27=Put On Your Old Grey Bonnet 1934
EXTD=
EXTT0=
EXTT1=
EXTT2=
EXTT3=
EXTT4=
EXTT5=
EXTT6=
EXTT7=
EXTT8=
EXTT9=
EXTT10=
EXTT11=
EXTT12=
EXTT13=
EXTT14=
EXTT15=
EXTT16=
EXTT17=
EXTT18=
EXTT19=
EXTT20=
EXTT21=
EXTT22=
EXTT23=
EXTT24=
EXTT25=
EXTT26=
EXTT27=
PLAYORDER=
